<?xml version="1.0" encoding="utf-8"?>
<!-- Generator: Adobe Illustrator 23.0.2, SVG Export Plug-In . SVG Version: 6.00 Build 0)  -->
<svg version="1.1" baseProfile="tiny" id="Layer_1" xmlns="http://www.w3.org/2000/svg" xmlns:xlink="http://www.w3.org/1999/xlink"
	 x="0px" y="0px" width="223px" height="57px" viewBox="0 0 223 57" xml:space="preserve">
<path fill="#FFFFFF" stroke="#929497" stroke-width="0.35" stroke-miterlimit="10" d="M205.74,0H63.37h0.21H0.04v29.03
	c0,6.19,4.85,11.28,11.04,11.6l1.61,0.08C14.85,50.04,23.22,57,33.19,57c0.02,0,0.03,0,0.03,0l0.01,0h30.2h-0.28h142.58h-0.49h10.34
	c3.95,0,7.15-3.2,7.15-7.15V7.15c0-3.95-3.2-7.15-7.15-7.15h-10.34"/>
<g>
	<path fill="#5FC323" d="M6.02,5.98V29c0,3.66,2.87,6.61,6.48,6.8c-0.19-9.89,6.82-18.74,16.86-20.51c1.18-0.21,2.37-0.32,3.57-0.32
		c9.93,0,18.38,7.11,20.11,16.89c0.23,1.33,0.32,2.64,0.3,3.94c3.6-0.2,6.47-3.15,6.47-6.8V5.98H6.02z"/>
	<path d="M26.36,35.4c0-3.64,2.95-6.58,6.59-6.58c3.64,0,6.58,2.95,6.58,6.58H26.36z M17.26,35.41c0,8.61,7.01,15.61,15.61,15.61
		c4.18,0,8.11-1.63,11.06-4.6l-3.18-3.16c-2.1,2.12-4.9,3.28-7.88,3.28c-6.14,0-11.12-4.99-11.12-11.12
		c0-6.13,4.98-11.12,11.12-11.12c6.14,0,11.12,4.99,11.12,11.12h4.49c0-8.6-7-15.6-15.6-15.6C24.28,19.8,17.26,26.81,17.26,35.41"/>
</g>
<g>
	<path fill="#004676" d="M64.98,43.88h1.01l1.31,4.05l0.5,1.54h0.04l0.48-1.54l1.3-4.05h1.01v7.54h-0.82v-4.15
		c0-0.34,0.01-0.71,0.04-1.12c0.02-0.41,0.05-0.78,0.08-1.12H69.9l-0.55,1.68l-1.3,3.94h-0.49l-1.31-3.94l-0.54-1.68h-0.04
		c0.02,0.34,0.04,0.71,0.07,1.12c0.03,0.41,0.04,0.78,0.04,1.12v4.15h-0.8V43.88z"/>
	<path fill="#004676" d="M72.05,48.64c0-0.47,0.06-0.88,0.19-1.25c0.13-0.36,0.3-0.67,0.51-0.93c0.21-0.25,0.46-0.45,0.74-0.58
		c0.28-0.13,0.57-0.2,0.88-0.2s0.61,0.06,0.89,0.2c0.28,0.13,0.53,0.32,0.74,0.58c0.21,0.25,0.38,0.56,0.51,0.93
		c0.13,0.36,0.19,0.78,0.19,1.25c0,0.46-0.06,0.87-0.19,1.24c-0.13,0.36-0.3,0.67-0.51,0.92s-0.46,0.44-0.74,0.57
		c-0.28,0.13-0.57,0.2-0.89,0.2s-0.61-0.06-0.88-0.2c-0.28-0.13-0.53-0.32-0.74-0.57s-0.38-0.56-0.51-0.92
		C72.11,49.51,72.05,49.1,72.05,48.64z M72.93,48.64c0,0.32,0.03,0.61,0.1,0.87c0.07,0.26,0.17,0.49,0.29,0.67
		c0.13,0.19,0.28,0.33,0.46,0.44c0.18,0.1,0.38,0.16,0.59,0.16s0.41-0.05,0.59-0.16c0.18-0.1,0.33-0.25,0.46-0.44
		c0.13-0.19,0.23-0.41,0.29-0.67c0.07-0.26,0.1-0.55,0.1-0.87s-0.03-0.62-0.1-0.88c-0.07-0.26-0.17-0.49-0.29-0.68
		c-0.13-0.19-0.28-0.34-0.46-0.44c-0.18-0.1-0.38-0.16-0.59-0.16s-0.41,0.05-0.59,0.16c-0.18,0.1-0.33,0.25-0.46,0.44
		c-0.13,0.19-0.23,0.42-0.29,0.68C72.96,48.02,72.93,48.32,72.93,48.64z"/>
	<path fill="#004676" d="M77.65,52.49c0-0.24,0.07-0.46,0.2-0.68c0.13-0.21,0.31-0.41,0.54-0.59v-0.05
		c-0.12-0.08-0.23-0.2-0.32-0.35c-0.09-0.15-0.13-0.34-0.13-0.56c0-0.24,0.06-0.44,0.18-0.62c0.12-0.18,0.24-0.31,0.37-0.41v-0.05
		c-0.17-0.15-0.32-0.36-0.45-0.62c-0.13-0.26-0.2-0.55-0.2-0.89c0-0.31,0.05-0.58,0.15-0.83c0.1-0.25,0.24-0.45,0.41-0.63
		s0.37-0.3,0.61-0.4c0.23-0.09,0.47-0.14,0.73-0.14c0.14,0,0.27,0.01,0.39,0.04c0.12,0.03,0.23,0.06,0.33,0.1h1.75v0.72h-1.03
		c0.12,0.13,0.22,0.29,0.29,0.49c0.08,0.2,0.12,0.42,0.12,0.66c0,0.3-0.05,0.57-0.14,0.81c-0.1,0.24-0.23,0.44-0.39,0.61
		s-0.36,0.29-0.58,0.38c-0.22,0.09-0.46,0.14-0.72,0.14c-0.12,0-0.25-0.02-0.38-0.05c-0.13-0.04-0.26-0.08-0.37-0.14
		c-0.09,0.08-0.17,0.18-0.23,0.28s-0.09,0.23-0.09,0.38c0,0.18,0.06,0.32,0.19,0.44c0.12,0.12,0.36,0.17,0.7,0.17h0.97
		c0.59,0,1.03,0.11,1.32,0.32c0.29,0.21,0.44,0.55,0.44,1.02c0,0.26-0.06,0.51-0.18,0.74c-0.12,0.23-0.29,0.44-0.51,0.62
		c-0.22,0.18-0.49,0.32-0.8,0.42S80.12,54,79.73,54c-0.31,0-0.59-0.03-0.85-0.1c-0.26-0.07-0.47-0.16-0.66-0.29
		c-0.18-0.13-0.32-0.29-0.42-0.47C77.7,52.95,77.65,52.74,77.65,52.49z M78.39,52.37c0,0.3,0.13,0.54,0.39,0.71
		c0.26,0.18,0.62,0.26,1.07,0.26c0.24,0,0.46-0.03,0.66-0.1c0.2-0.06,0.36-0.15,0.5-0.25c0.14-0.1,0.24-0.22,0.32-0.36
		c0.08-0.14,0.11-0.28,0.11-0.42c0-0.26-0.09-0.44-0.26-0.54s-0.42-0.15-0.76-0.15h-0.87c-0.1,0-0.2-0.01-0.32-0.02
		c-0.11-0.01-0.23-0.04-0.34-0.08c-0.18,0.15-0.31,0.3-0.39,0.46C78.43,52.04,78.39,52.21,78.39,52.37z M79.73,49.02
		c0.15,0,0.28-0.03,0.41-0.09c0.13-0.06,0.24-0.15,0.34-0.26s0.18-0.25,0.23-0.42s0.08-0.35,0.08-0.56c0-0.41-0.1-0.73-0.31-0.96
		c-0.21-0.23-0.46-0.34-0.76-0.34c-0.3,0-0.55,0.11-0.76,0.34c-0.21,0.23-0.31,0.55-0.31,0.96c0,0.21,0.03,0.39,0.08,0.56
		c0.06,0.17,0.13,0.3,0.23,0.42c0.1,0.12,0.21,0.2,0.34,0.26C79.45,48.99,79.58,49.02,79.73,49.02z"/>
	<path fill="#004676" d="M82.73,48.64c0-0.46,0.06-0.87,0.19-1.24c0.13-0.36,0.3-0.67,0.51-0.93s0.45-0.45,0.72-0.58
		c0.27-0.13,0.55-0.2,0.84-0.2c0.32,0,0.6,0.06,0.85,0.18c0.25,0.12,0.46,0.3,0.63,0.53c0.17,0.23,0.3,0.51,0.39,0.83
		c0.09,0.32,0.13,0.68,0.13,1.08c0,0.21-0.01,0.38-0.03,0.52h-3.4c0.03,0.61,0.2,1.08,0.5,1.44c0.3,0.35,0.69,0.53,1.17,0.53
		c0.24,0,0.46-0.04,0.67-0.12c0.2-0.08,0.4-0.19,0.58-0.32l0.3,0.62c-0.22,0.15-0.47,0.29-0.73,0.4c-0.27,0.11-0.58,0.17-0.92,0.17
		c-0.34,0-0.65-0.07-0.95-0.2c-0.29-0.13-0.55-0.33-0.77-0.58c-0.22-0.25-0.39-0.55-0.51-0.91C82.79,49.51,82.73,49.1,82.73,48.64z
		 M86.25,48.21c0-0.57-0.11-1.01-0.33-1.32s-0.52-0.45-0.92-0.45c-0.18,0-0.35,0.04-0.51,0.12c-0.16,0.08-0.31,0.2-0.44,0.34
		c-0.13,0.15-0.24,0.33-0.33,0.55c-0.09,0.22-0.14,0.47-0.17,0.75H86.25z"/>
	<path fill="#004676" d="M88.24,43.23h0.85v7.13c0,0.15,0.02,0.26,0.07,0.32c0.05,0.06,0.1,0.09,0.17,0.09c0.03,0,0.05,0,0.08,0
		c0.02,0,0.06-0.01,0.11-0.02l0.11,0.71c-0.06,0.03-0.12,0.05-0.2,0.07c-0.08,0.01-0.17,0.02-0.29,0.02c-0.32,0-0.56-0.11-0.69-0.32
		c-0.14-0.21-0.21-0.53-0.21-0.94V43.23z"/>
	<path fill="#004676" d="M91.31,44.68c-0.17,0-0.31-0.06-0.42-0.17c-0.11-0.12-0.17-0.26-0.17-0.44c0-0.18,0.06-0.33,0.17-0.44
		s0.25-0.17,0.42-0.17c0.17,0,0.31,0.06,0.42,0.17s0.17,0.26,0.17,0.44c0,0.18-0.06,0.32-0.17,0.44
		C91.61,44.63,91.47,44.68,91.31,44.68z M90.87,45.83h0.85v5.59h-0.85V45.83z"/>
	<path fill="#004676" d="M93.43,45.83h0.85v6.22c0,0.57-0.1,1.02-0.31,1.36c-0.21,0.34-0.56,0.51-1.07,0.51
		c-0.16,0-0.3-0.01-0.42-0.05c-0.12-0.03-0.23-0.07-0.32-0.1l0.18-0.71c0.06,0.02,0.13,0.04,0.22,0.06
		c0.08,0.02,0.17,0.03,0.26,0.03c0.25,0,0.41-0.1,0.5-0.29s0.12-0.46,0.12-0.8V45.83z M93.87,44.68c-0.17,0-0.31-0.06-0.42-0.17
		c-0.11-0.12-0.17-0.26-0.17-0.44c0-0.18,0.06-0.33,0.17-0.44s0.25-0.17,0.42-0.17c0.16,0,0.29,0.06,0.41,0.17s0.17,0.26,0.17,0.44
		c0,0.18-0.06,0.32-0.17,0.44C94.16,44.63,94.02,44.68,93.87,44.68z"/>
	<path fill="#004676" d="M95.98,43.23h0.84v5.54h0.03l2.14-2.94h0.94l-1.69,2.24l1.92,3.35h-0.93l-1.47-2.69l-0.94,1.22v1.47h-0.84
		V43.23z"/>
	<path fill="#004676" d="M102.81,52.49c0-0.24,0.07-0.46,0.2-0.68c0.13-0.21,0.31-0.41,0.54-0.59v-0.05
		c-0.12-0.08-0.23-0.2-0.32-0.35c-0.09-0.15-0.13-0.34-0.13-0.56c0-0.24,0.06-0.44,0.18-0.62c0.12-0.18,0.24-0.31,0.37-0.41v-0.05
		c-0.17-0.15-0.32-0.36-0.45-0.62c-0.13-0.26-0.2-0.55-0.2-0.89c0-0.31,0.05-0.58,0.15-0.83c0.1-0.25,0.24-0.45,0.41-0.63
		s0.37-0.3,0.61-0.4c0.23-0.09,0.47-0.14,0.73-0.14c0.14,0,0.27,0.01,0.39,0.04c0.12,0.03,0.23,0.06,0.33,0.1h1.75v0.72h-1.03
		c0.12,0.13,0.22,0.29,0.29,0.49c0.08,0.2,0.12,0.42,0.12,0.66c0,0.3-0.05,0.57-0.14,0.81c-0.1,0.24-0.23,0.44-0.39,0.61
		s-0.36,0.29-0.58,0.38c-0.22,0.09-0.46,0.14-0.72,0.14c-0.12,0-0.25-0.02-0.38-0.05c-0.13-0.04-0.26-0.08-0.37-0.14
		c-0.09,0.08-0.17,0.18-0.23,0.28s-0.09,0.23-0.09,0.38c0,0.18,0.06,0.32,0.19,0.44c0.12,0.12,0.36,0.17,0.7,0.17h0.97
		c0.59,0,1.03,0.11,1.32,0.32c0.29,0.21,0.44,0.55,0.44,1.02c0,0.26-0.06,0.51-0.18,0.74c-0.12,0.23-0.29,0.44-0.51,0.62
		c-0.22,0.18-0.49,0.32-0.8,0.42S105.28,54,104.89,54c-0.31,0-0.59-0.03-0.85-0.1c-0.26-0.07-0.47-0.16-0.66-0.29
		c-0.18-0.13-0.32-0.29-0.42-0.47C102.86,52.95,102.81,52.74,102.81,52.49z M103.55,52.37c0,0.3,0.13,0.54,0.39,0.71
		c0.26,0.18,0.62,0.26,1.07,0.26c0.24,0,0.46-0.03,0.66-0.1c0.2-0.06,0.36-0.15,0.5-0.25c0.14-0.1,0.24-0.22,0.32-0.36
		c0.08-0.14,0.11-0.28,0.11-0.42c0-0.26-0.09-0.44-0.26-0.54s-0.42-0.15-0.76-0.15h-0.87c-0.1,0-0.2-0.01-0.32-0.02
		c-0.11-0.01-0.23-0.04-0.34-0.08c-0.18,0.15-0.31,0.3-0.39,0.46C103.59,52.04,103.55,52.21,103.55,52.37z M104.89,49.02
		c0.15,0,0.28-0.03,0.41-0.09c0.13-0.06,0.24-0.15,0.34-0.26s0.18-0.25,0.23-0.42s0.08-0.35,0.08-0.56c0-0.41-0.1-0.73-0.31-0.96
		c-0.21-0.23-0.46-0.34-0.76-0.34c-0.3,0-0.55,0.11-0.76,0.34c-0.21,0.23-0.31,0.55-0.31,0.96c0,0.21,0.03,0.39,0.08,0.56
		c0.06,0.17,0.13,0.3,0.23,0.42c0.1,0.12,0.21,0.2,0.34,0.26C104.61,48.99,104.74,49.02,104.89,49.02z"/>
	<path fill="#004676" d="M107.89,48.64c0-0.46,0.06-0.87,0.19-1.24c0.13-0.36,0.3-0.67,0.51-0.93s0.45-0.45,0.72-0.58
		c0.27-0.13,0.55-0.2,0.84-0.2c0.32,0,0.6,0.06,0.85,0.18c0.25,0.12,0.46,0.3,0.63,0.53c0.17,0.23,0.3,0.51,0.39,0.83
		c0.09,0.32,0.13,0.68,0.13,1.08c0,0.21-0.01,0.38-0.03,0.52h-3.4c0.03,0.61,0.2,1.08,0.5,1.44c0.3,0.35,0.69,0.53,1.17,0.53
		c0.24,0,0.46-0.04,0.67-0.12c0.2-0.08,0.4-0.19,0.58-0.32l0.3,0.62c-0.22,0.15-0.47,0.29-0.73,0.4c-0.27,0.11-0.58,0.17-0.92,0.17
		c-0.34,0-0.65-0.07-0.95-0.2c-0.29-0.13-0.55-0.33-0.77-0.58c-0.22-0.25-0.39-0.55-0.51-0.91
		C107.95,49.51,107.89,49.1,107.89,48.64z M111.41,48.21c0-0.57-0.11-1.01-0.33-1.32s-0.52-0.45-0.92-0.45
		c-0.18,0-0.35,0.04-0.51,0.12c-0.16,0.08-0.31,0.2-0.44,0.34c-0.13,0.15-0.24,0.33-0.33,0.55c-0.09,0.22-0.14,0.47-0.17,0.75
		H111.41z"/>
	<path fill="#004676" d="M113.4,45.83h0.7l0.07,0.8h0.03c0.22-0.27,0.46-0.49,0.72-0.67c0.26-0.18,0.54-0.27,0.84-0.27
		c0.39,0,0.69,0.09,0.91,0.28c0.22,0.19,0.38,0.45,0.48,0.79c0.26-0.32,0.53-0.58,0.79-0.78s0.55-0.29,0.86-0.29
		c0.52,0,0.9,0.18,1.15,0.55c0.25,0.37,0.38,0.91,0.38,1.63v3.54h-0.85v-3.42c0-0.53-0.08-0.91-0.23-1.14
		c-0.15-0.23-0.39-0.35-0.7-0.35c-0.38,0-0.8,0.29-1.26,0.86v4.05h-0.85v-3.42c0-0.53-0.08-0.91-0.23-1.14
		c-0.15-0.23-0.39-0.35-0.71-0.35c-0.38,0-0.8,0.29-1.26,0.86v4.05h-0.85V45.83z"/>
	<path fill="#004676" d="M121.73,49.97c0-0.61,0.25-1.08,0.74-1.41c0.49-0.33,1.28-0.55,2.35-0.68c0-0.18-0.02-0.35-0.05-0.52
		c-0.03-0.17-0.09-0.32-0.17-0.45c-0.08-0.13-0.19-0.24-0.32-0.32s-0.3-0.12-0.51-0.12c-0.3,0-0.57,0.06-0.82,0.18
		c-0.25,0.12-0.48,0.26-0.68,0.41l-0.34-0.66c0.23-0.17,0.52-0.33,0.86-0.49c0.34-0.16,0.71-0.24,1.12-0.24
		c0.61,0,1.06,0.21,1.34,0.63c0.28,0.42,0.41,0.98,0.41,1.67v3.43h-0.7l-0.07-0.67h-0.02c-0.24,0.22-0.5,0.41-0.78,0.57
		s-0.57,0.24-0.88,0.24c-0.43,0-0.78-0.14-1.06-0.41C121.87,50.87,121.73,50.48,121.73,49.97z M122.57,49.91
		c0,0.32,0.08,0.55,0.25,0.69c0.17,0.14,0.38,0.21,0.63,0.21c0.24,0,0.47-0.06,0.69-0.19c0.22-0.13,0.45-0.31,0.69-0.56V48.5
		c-0.42,0.06-0.78,0.13-1.07,0.22c-0.29,0.08-0.52,0.18-0.7,0.3c-0.18,0.12-0.3,0.25-0.38,0.4
		C122.6,49.57,122.57,49.73,122.57,49.91z"/>
	<path fill="#004676" d="M127.03,49.97c0-0.61,0.25-1.08,0.74-1.41c0.49-0.33,1.28-0.55,2.35-0.68c0-0.18-0.02-0.35-0.05-0.52
		c-0.03-0.17-0.09-0.32-0.17-0.45c-0.08-0.13-0.19-0.24-0.32-0.32s-0.3-0.12-0.51-0.12c-0.3,0-0.57,0.06-0.82,0.18
		c-0.25,0.12-0.48,0.26-0.68,0.41l-0.34-0.66c0.23-0.17,0.52-0.33,0.86-0.49c0.34-0.16,0.71-0.24,1.12-0.24
		c0.61,0,1.06,0.21,1.34,0.63c0.28,0.42,0.41,0.98,0.41,1.67v3.43h-0.7l-0.07-0.67h-0.02c-0.24,0.22-0.5,0.41-0.78,0.57
		s-0.57,0.24-0.88,0.24c-0.43,0-0.78-0.14-1.06-0.41C127.17,50.87,127.03,50.48,127.03,49.97z M127.86,49.91
		c0,0.32,0.08,0.55,0.25,0.69c0.17,0.14,0.38,0.21,0.63,0.21c0.24,0,0.47-0.06,0.69-0.19c0.22-0.13,0.45-0.31,0.69-0.56V48.5
		c-0.42,0.06-0.78,0.13-1.07,0.22c-0.29,0.08-0.52,0.18-0.7,0.3c-0.18,0.12-0.3,0.25-0.38,0.4
		C127.9,49.57,127.86,49.73,127.86,49.91z"/>
	<path fill="#004676" d="M132.57,43.23h0.84v5.54h0.03l2.14-2.94h0.94l-1.69,2.24l1.91,3.35h-0.93l-1.47-2.69l-0.94,1.22v1.47h-0.84
		V43.23z"/>
	<path fill="#004676" d="M137.7,46.6h-0.75v-0.71l0.79-0.06l0.1-1.56h0.71v1.56h1.36v0.77h-1.36v3.1c0,0.35,0.06,0.61,0.17,0.8
		s0.32,0.28,0.61,0.28c0.09,0,0.19-0.01,0.29-0.05c0.1-0.03,0.2-0.06,0.28-0.1l0.17,0.71c-0.14,0.05-0.29,0.1-0.45,0.14
		c-0.16,0.04-0.32,0.06-0.48,0.06c-0.27,0-0.5-0.05-0.68-0.14c-0.18-0.09-0.33-0.22-0.44-0.38c-0.11-0.16-0.2-0.36-0.24-0.59
		c-0.05-0.23-0.07-0.48-0.07-0.76V46.6z"/>
	<path fill="#004676" d="M142.78,48.64c0-0.45,0.06-0.86,0.18-1.22c0.12-0.36,0.28-0.67,0.48-0.93s0.43-0.45,0.69-0.59
		c0.26-0.14,0.54-0.21,0.83-0.21c0.29,0,0.54,0.06,0.76,0.17s0.43,0.27,0.65,0.47l-0.04-0.95v-2.15h0.86v8.19h-0.7l-0.07-0.66h-0.03
		c-0.2,0.21-0.43,0.4-0.69,0.56s-0.54,0.24-0.83,0.24c-0.63,0-1.14-0.25-1.52-0.76S142.78,49.58,142.78,48.64z M143.66,48.63
		c0,0.67,0.12,1.2,0.36,1.58c0.24,0.38,0.58,0.56,1.02,0.56c0.23,0,0.46-0.06,0.66-0.19c0.21-0.13,0.41-0.32,0.62-0.58v-2.92
		c-0.21-0.21-0.42-0.37-0.62-0.45c-0.2-0.09-0.4-0.13-0.61-0.13c-0.2,0-0.39,0.05-0.56,0.16s-0.33,0.25-0.46,0.44
		c-0.13,0.19-0.24,0.41-0.31,0.67C143.7,48.01,143.66,48.31,143.66,48.63z"/>
	<path fill="#004676" d="M148.51,48.64c0-0.47,0.06-0.88,0.19-1.25c0.13-0.36,0.3-0.67,0.51-0.93c0.21-0.25,0.46-0.45,0.74-0.58
		c0.28-0.13,0.57-0.2,0.88-0.2s0.61,0.06,0.88,0.2c0.28,0.13,0.53,0.32,0.74,0.58c0.21,0.25,0.38,0.56,0.51,0.93
		c0.13,0.36,0.19,0.78,0.19,1.25c0,0.46-0.06,0.87-0.19,1.24c-0.13,0.36-0.3,0.67-0.51,0.92s-0.46,0.44-0.74,0.57
		c-0.28,0.13-0.57,0.2-0.88,0.2s-0.61-0.06-0.88-0.2c-0.28-0.13-0.53-0.32-0.74-0.57s-0.38-0.56-0.51-0.92
		C148.58,49.51,148.51,49.1,148.51,48.64z M149.39,48.64c0,0.32,0.04,0.61,0.1,0.87c0.07,0.26,0.17,0.49,0.29,0.67
		c0.13,0.19,0.28,0.33,0.46,0.44s0.38,0.16,0.59,0.16s0.41-0.05,0.59-0.16s0.33-0.25,0.46-0.44c0.13-0.19,0.23-0.41,0.29-0.67
		s0.1-0.55,0.1-0.87s-0.03-0.62-0.1-0.88s-0.17-0.49-0.29-0.68s-0.28-0.34-0.46-0.44s-0.38-0.16-0.59-0.16s-0.41,0.05-0.59,0.16
		s-0.33,0.25-0.46,0.44c-0.13,0.19-0.23,0.42-0.29,0.68C149.43,48.02,149.39,48.32,149.39,48.64z"/>
	<path fill="#004676" d="M154.12,48.64c0-0.47,0.06-0.88,0.19-1.25c0.13-0.36,0.3-0.67,0.51-0.93c0.21-0.25,0.46-0.45,0.74-0.58
		c0.28-0.13,0.57-0.2,0.88-0.2s0.61,0.06,0.88,0.2c0.28,0.13,0.53,0.32,0.74,0.58c0.21,0.25,0.38,0.56,0.51,0.93
		c0.13,0.36,0.19,0.78,0.19,1.25c0,0.46-0.06,0.87-0.19,1.24c-0.13,0.36-0.3,0.67-0.51,0.92s-0.46,0.44-0.74,0.57
		c-0.28,0.13-0.57,0.2-0.88,0.2s-0.61-0.06-0.88-0.2c-0.28-0.13-0.53-0.32-0.74-0.57c-0.21-0.25-0.39-0.56-0.51-0.92
		C154.19,49.51,154.12,49.1,154.12,48.64z M155,48.64c0,0.32,0.04,0.61,0.1,0.87c0.07,0.26,0.17,0.49,0.29,0.67
		c0.13,0.19,0.28,0.33,0.46,0.44s0.38,0.16,0.59,0.16s0.41-0.05,0.59-0.16s0.33-0.25,0.46-0.44c0.13-0.19,0.23-0.41,0.29-0.67
		s0.1-0.55,0.1-0.87s-0.03-0.62-0.1-0.88s-0.17-0.49-0.29-0.68s-0.28-0.34-0.46-0.44s-0.38-0.16-0.59-0.16s-0.41,0.05-0.59,0.16
		s-0.33,0.25-0.46,0.44c-0.13,0.19-0.23,0.42-0.29,0.68C155.04,48.02,155,48.32,155,48.64z"/>
	<path fill="#004676" d="M160.1,45.83h0.7l0.07,1.01h0.03c0.17-0.35,0.38-0.63,0.63-0.84c0.25-0.21,0.51-0.31,0.8-0.31
		c0.2,0,0.38,0.04,0.54,0.11l-0.17,0.83c-0.08-0.03-0.16-0.05-0.23-0.07c-0.07-0.02-0.16-0.02-0.26-0.02c-0.21,0-0.44,0.1-0.67,0.29
		c-0.23,0.19-0.43,0.53-0.61,1v3.59h-0.85V45.83z"/>
</g>
<g>
	<g>
		<path d="M109.92,8.66v10.76h-2.97V8.66h-4.11V5.92h11.18v2.74H109.92z"/>
		<path d="M123.72,19.42l-2.89-4.32h-2.33v4.32h-2.97V5.92h6.16c3.19,0,5.09,1.68,5.09,4.45v0.04c0,2.18-1.17,3.55-2.89,4.18
			l3.3,4.82H123.72z M123.78,10.53c0-1.27-0.89-1.93-2.33-1.93h-2.95v3.88h3c1.45,0,2.28-0.77,2.28-1.91V10.53z"/>
		<path d="M134.71,19.63c-3.63,0-5.84-2.02-5.84-6V5.92h2.97v7.63c0,2.2,1.1,3.33,2.91,3.33c1.81,0,2.91-1.1,2.91-3.24V5.92h2.97
			v7.61C140.62,17.62,138.33,19.63,134.71,19.63z"/>
		<path d="M148.07,19.61c-2.05,0-4.11-0.71-5.73-2.16l1.75-2.1c1.21,1,2.49,1.64,4.03,1.64c1.21,0,1.95-0.48,1.95-1.27v-0.04
			c0-0.75-0.46-1.14-2.72-1.71c-2.72-0.69-4.47-1.45-4.47-4.13V9.8c0-2.45,1.96-4.07,4.72-4.07c1.97,0,3.64,0.62,5.01,1.72
			l-1.54,2.23c-1.19-0.83-2.37-1.33-3.51-1.33c-1.13,0-1.73,0.52-1.73,1.18v0.04c0,0.89,0.58,1.18,2.91,1.77
			c2.73,0.71,4.27,1.7,4.27,4.05v0.04C153.01,18.11,150.97,19.61,148.07,19.61z"/>
		<path d="M160.56,8.66v10.76h-2.97V8.66h-4.11V5.92h11.18v2.74H160.56z"/>
		<path d="M173.91,15.27h-7.19c0.29,1.33,1.22,2.02,2.53,2.02c0.98,0,1.7-0.31,2.51-1.06l1.67,1.48c-0.96,1.2-2.35,1.93-4.22,1.93
			c-3.1,0-5.4-2.18-5.4-5.34v-0.04c0-2.95,2.1-5.38,5.1-5.38c3.45,0,5.03,2.68,5.03,5.61v0.04C173.95,14.83,173.93,15,173.91,15.27z
			 M168.91,11.24c-1.2,0-2,0.87-2.23,2.2h4.41C170.92,12.13,170.15,11.24,168.91,11.24z"/>
	</g>
</g>
<g>
	<path fill="#004676" d="M168.68,45.25h-2.53v-1.26h6.5v1.26h-2.53v6.41h-1.45V45.25z M174.01,51.66v-4.25
		c0.24-0.14,0.61-0.22,1.04-0.22c0.29,0,0.57,0.03,0.84,0.11l0.35-1.14c-0.35-0.13-0.75-0.18-1.23-0.18c-1.06,0-1.91,0.42-2.33,0.79
		v4.89H174.01z M180.92,46.16v4.26c-0.34,0.14-0.71,0.21-1.15,0.21c-1.12,0-1.36-0.51-1.36-1.42v-3.06h-1.35v3.45
		c0,1.36,0.78,2.22,2.53,2.22c1.24,0,2.1-0.32,2.67-0.59v-5.08H180.92z M183.39,50.97c0,0,0.78,0.82,2.16,0.82
		c1.32,0,2.13-0.74,2.13-1.67c0-1.79-2.71-1.7-2.71-2.48c0-0.35,0.35-0.5,0.71-0.5c0.85,0,1.37,0.48,1.37,0.48l0.51-1.03
		c0,0-0.61-0.63-1.87-0.63c-1.2,0-2.13,0.6-2.13,1.64c0,1.79,2.71,1.68,2.71,2.52c0,0.33-0.34,0.5-0.73,0.5
		c-0.91,0-1.52-0.61-1.52-0.61L183.39,50.97z M188.85,49.61c0,1.87,1.54,2.1,2.32,2.1c0.26,0,0.43-0.03,0.43-0.03v-1.21
		c0,0-0.1,0.02-0.25,0.02c-0.38,0-1.1-0.13-1.1-1.05v-2.08h1.27v-1.19h-1.27v-1.61h-1.36L188.85,49.61z M201.26,51.66v-4.25
		c0.24-0.14,0.61-0.22,1.04-0.22c0.29,0,0.57,0.03,0.84,0.11l0.35-1.14c-0.35-0.13-0.75-0.18-1.23-0.18c-1.06,0-1.91,0.42-2.33,0.79
		v4.89H201.26z M206.61,46.05c-1.8,0-2.95,1.3-2.95,2.85c0,1.58,1.15,2.85,2.95,2.85c1.46,0,2.24-0.89,2.24-0.89l-0.52-0.96
		c0,0-0.68,0.69-1.6,0.69c-1.03,0-1.69-0.79-1.69-1.71c0-0.93,0.65-1.68,1.65-1.68c0.85,0,1.42,0.59,1.42,0.59l0.6-0.93
		C208.7,46.86,208.03,46.05,206.61,46.05 M197.03,49.67h-2.54l-0.68,1.95h-1.42l2.66-7.57h1.42l2.66,7.57h-1.42L197.03,49.67z
		 M196.63,48.55l-0.88-2.49l-0.88,2.49H196.63z"/>
</g>
<line fill="none" stroke="#231F20" stroke-width="0.5" stroke-miterlimit="10" x1="65.12" y1="40.24" x2="209.16" y2="40.24"/>
<g>
	<path d="M71.47,29.42c0-0.79,0.11-1.5,0.34-2.13c0.23-0.63,0.54-1.17,0.95-1.61c0.41-0.44,0.88-0.78,1.43-1.01
		c0.55-0.23,1.16-0.35,1.81-0.35c0.68,0,1.25,0.13,1.7,0.38s0.83,0.53,1.12,0.83l-0.71,0.79c-0.25-0.26-0.54-0.48-0.86-0.65
		s-0.74-0.26-1.24-0.26s-0.95,0.09-1.35,0.28c-0.4,0.19-0.74,0.45-1.02,0.79c-0.28,0.34-0.5,0.76-0.65,1.25
		c-0.16,0.49-0.23,1.04-0.23,1.65c0,0.62,0.07,1.18,0.22,1.67c0.15,0.5,0.36,0.92,0.63,1.27c0.27,0.35,0.61,0.62,1.02,0.81
		c0.41,0.19,0.87,0.29,1.4,0.29c0.35,0,0.68-0.05,1-0.16c0.31-0.11,0.57-0.25,0.77-0.43v-2.57h-2.08v-1.03h3.22v4.14
		c-0.32,0.33-0.74,0.6-1.27,0.82s-1.12,0.32-1.78,0.32c-0.65,0-1.25-0.12-1.79-0.34s-1-0.56-1.39-1c-0.39-0.44-0.7-0.97-0.92-1.61
		C71.58,30.94,71.47,30.22,71.47,29.42z"/>
	<path d="M80.63,30.71c0-0.6,0.09-1.14,0.28-1.61c0.18-0.48,0.43-0.88,0.73-1.21c0.31-0.33,0.65-0.58,1.04-0.76
		c0.39-0.18,0.79-0.26,1.21-0.26c0.46,0,0.87,0.08,1.24,0.24c0.37,0.16,0.67,0.39,0.92,0.69s0.43,0.66,0.56,1.08s0.2,0.89,0.2,1.41
		c0,0.27-0.01,0.5-0.04,0.67h-4.92c0.05,0.79,0.29,1.42,0.73,1.88c0.43,0.46,1,0.69,1.7,0.69c0.35,0,0.67-0.05,0.97-0.16
		c0.29-0.1,0.58-0.24,0.85-0.41l0.43,0.81c-0.32,0.2-0.67,0.38-1.07,0.53c-0.39,0.15-0.83,0.22-1.33,0.22
		c-0.49,0-0.95-0.09-1.37-0.26c-0.42-0.18-0.79-0.43-1.11-0.75c-0.31-0.33-0.56-0.72-0.74-1.19C80.72,31.85,80.63,31.31,80.63,30.71
		z M85.73,30.16c0-0.75-0.16-1.32-0.47-1.72c-0.31-0.4-0.76-0.59-1.33-0.59c-0.26,0-0.51,0.05-0.74,0.16
		c-0.23,0.11-0.45,0.26-0.64,0.45c-0.19,0.2-0.35,0.44-0.47,0.72c-0.12,0.29-0.21,0.61-0.25,0.98H85.73z"/>
	<path d="M87.64,27.05h1.28l1.38,4.14c0.11,0.36,0.22,0.72,0.34,1.08c0.11,0.36,0.23,0.72,0.34,1.07h0.06
		c0.11-0.35,0.22-0.71,0.33-1.07c0.11-0.36,0.22-0.72,0.33-1.08l1.38-4.14h1.21l-2.58,7.29h-1.44L87.64,27.05z"/>
	<path d="M95.09,30.71c0-0.6,0.09-1.14,0.28-1.61c0.18-0.48,0.43-0.88,0.73-1.21c0.31-0.33,0.65-0.58,1.04-0.76
		c0.39-0.18,0.79-0.26,1.21-0.26c0.46,0,0.87,0.08,1.24,0.24c0.37,0.16,0.67,0.39,0.92,0.69s0.43,0.66,0.56,1.08s0.2,0.89,0.2,1.41
		c0,0.27-0.01,0.5-0.04,0.67h-4.92c0.05,0.79,0.29,1.42,0.73,1.88c0.43,0.46,1,0.69,1.7,0.69c0.35,0,0.67-0.05,0.97-0.16
		c0.29-0.1,0.58-0.24,0.85-0.41l0.43,0.81c-0.32,0.2-0.67,0.38-1.07,0.53c-0.39,0.15-0.83,0.22-1.33,0.22
		c-0.49,0-0.95-0.09-1.37-0.26c-0.42-0.18-0.79-0.43-1.11-0.75c-0.31-0.33-0.56-0.72-0.74-1.19C95.18,31.85,95.09,31.31,95.09,30.71
		z M100.19,30.16c0-0.75-0.16-1.32-0.47-1.72c-0.31-0.4-0.76-0.59-1.33-0.59c-0.26,0-0.51,0.05-0.74,0.16
		c-0.23,0.11-0.45,0.26-0.64,0.45c-0.19,0.2-0.35,0.44-0.47,0.72c-0.12,0.29-0.21,0.61-0.25,0.98H100.19z"/>
	<path d="M103.07,27.05h1.02l0.11,1.32h0.04c0.25-0.46,0.55-0.83,0.91-1.1c0.35-0.27,0.74-0.4,1.16-0.4c0.29,0,0.55,0.05,0.78,0.15
		l-0.24,1.08c-0.12-0.04-0.23-0.07-0.33-0.09c-0.1-0.02-0.22-0.03-0.38-0.03c-0.31,0-0.63,0.13-0.97,0.38
		c-0.34,0.25-0.63,0.69-0.88,1.31v4.68h-1.23V27.05z"/>
	<path d="M108.91,25.55c-0.24,0-0.44-0.08-0.61-0.22c-0.17-0.15-0.25-0.34-0.25-0.57c0-0.24,0.08-0.43,0.25-0.58
		c0.17-0.15,0.37-0.22,0.61-0.22c0.24,0,0.44,0.07,0.61,0.22c0.17,0.14,0.25,0.34,0.25,0.58c0,0.23-0.08,0.42-0.25,0.57
		C109.35,25.48,109.14,25.55,108.91,25.55z M108.28,27.05h1.23v7.29h-1.23V27.05z"/>
	<path d="M115.25,24.67c-0.27-0.12-0.54-0.18-0.82-0.18c-0.68,0-1.02,0.47-1.02,1.41v1.16h1.54v1h-1.54v6.29h-1.23v-6.29h-0.99
		v-0.93l0.99-0.08V25.9c0-0.75,0.17-1.34,0.52-1.77c0.35-0.43,0.88-0.65,1.61-0.65c0.23,0,0.45,0.02,0.65,0.07
		c0.21,0.05,0.39,0.1,0.56,0.17L115.25,24.67z"/>
	<path d="M116.97,25.55c-0.24,0-0.44-0.08-0.61-0.22c-0.17-0.15-0.25-0.34-0.25-0.57c0-0.24,0.08-0.43,0.25-0.58
		c0.17-0.15,0.37-0.22,0.61-0.22c0.24,0,0.44,0.07,0.61,0.22c0.17,0.14,0.25,0.34,0.25,0.58c0,0.23-0.08,0.42-0.25,0.57
		C117.42,25.48,117.21,25.55,116.97,25.55z M116.34,27.05h1.23v7.29h-1.23V27.05z"/>
	<path d="M119.49,30.71c0-0.6,0.09-1.14,0.28-1.61c0.18-0.48,0.43-0.88,0.73-1.21c0.31-0.33,0.65-0.58,1.04-0.76
		c0.39-0.18,0.79-0.26,1.21-0.26c0.46,0,0.87,0.08,1.24,0.24c0.37,0.16,0.67,0.39,0.92,0.69s0.43,0.66,0.56,1.08s0.2,0.89,0.2,1.41
		c0,0.27-0.01,0.5-0.04,0.67h-4.92c0.05,0.79,0.29,1.42,0.73,1.88c0.43,0.46,1,0.69,1.7,0.69c0.35,0,0.67-0.05,0.97-0.16
		c0.29-0.1,0.58-0.24,0.85-0.41l0.43,0.81c-0.32,0.2-0.67,0.38-1.07,0.53c-0.39,0.15-0.83,0.22-1.33,0.22
		c-0.49,0-0.95-0.09-1.37-0.26c-0.42-0.18-0.79-0.43-1.11-0.75c-0.31-0.33-0.56-0.72-0.74-1.19
		C119.58,31.85,119.49,31.31,119.49,30.71z M124.59,30.16c0-0.75-0.16-1.32-0.47-1.72c-0.31-0.4-0.76-0.59-1.33-0.59
		c-0.26,0-0.51,0.05-0.74,0.16c-0.23,0.11-0.45,0.26-0.64,0.45c-0.19,0.2-0.35,0.44-0.47,0.72c-0.12,0.29-0.21,0.61-0.25,0.98
		H124.59z"/>
	<path d="M126.93,30.71c0-0.6,0.09-1.14,0.28-1.61c0.18-0.48,0.43-0.88,0.73-1.21c0.31-0.33,0.65-0.58,1.04-0.76
		c0.39-0.18,0.79-0.26,1.21-0.26c0.46,0,0.87,0.08,1.24,0.24c0.37,0.16,0.67,0.39,0.92,0.69s0.43,0.66,0.56,1.08s0.2,0.89,0.2,1.41
		c0,0.27-0.01,0.5-0.04,0.67h-4.92c0.05,0.79,0.29,1.42,0.73,1.88c0.43,0.46,1,0.69,1.7,0.69c0.35,0,0.67-0.05,0.97-0.16
		c0.29-0.1,0.58-0.24,0.85-0.41l0.43,0.81c-0.32,0.2-0.67,0.38-1.07,0.53c-0.39,0.15-0.83,0.22-1.33,0.22
		c-0.49,0-0.95-0.09-1.37-0.26c-0.42-0.18-0.79-0.43-1.11-0.75c-0.31-0.33-0.56-0.72-0.74-1.19
		C127.02,31.85,126.93,31.31,126.93,30.71z M132.03,30.16c0-0.75-0.16-1.32-0.47-1.72c-0.31-0.4-0.76-0.59-1.33-0.59
		c-0.26,0-0.51,0.05-0.74,0.16c-0.23,0.11-0.45,0.26-0.64,0.45c-0.19,0.2-0.35,0.44-0.47,0.72c-0.12,0.29-0.21,0.61-0.25,0.98
		H132.03z"/>
	<path d="M134.91,27.05h1.02l0.11,1.32h0.04c0.25-0.46,0.55-0.83,0.91-1.1c0.35-0.27,0.74-0.4,1.16-0.4c0.29,0,0.55,0.05,0.78,0.15
		l-0.24,1.08c-0.12-0.04-0.23-0.07-0.33-0.09c-0.1-0.02-0.22-0.03-0.38-0.03c-0.31,0-0.63,0.13-0.97,0.38
		c-0.34,0.25-0.63,0.69-0.88,1.31v4.68h-1.23V27.05z"/>
	<path d="M139.44,30.71c0-0.59,0.09-1.12,0.26-1.6c0.17-0.47,0.41-0.88,0.7-1.21c0.29-0.33,0.62-0.58,1-0.77
		c0.38-0.18,0.78-0.27,1.2-0.27s0.79,0.08,1.09,0.22c0.31,0.15,0.62,0.36,0.95,0.62l-0.06-1.25v-2.8h1.25v10.68h-1.02l-0.11-0.86
		h-0.04c-0.29,0.28-0.62,0.52-1,0.73c-0.38,0.21-0.78,0.31-1.21,0.31c-0.92,0-1.65-0.33-2.2-0.99
		C139.72,32.88,139.44,31.93,139.44,30.71z M140.72,30.7c0,0.88,0.17,1.56,0.52,2.05s0.84,0.73,1.49,0.73
		c0.34,0,0.66-0.08,0.96-0.25s0.6-0.42,0.9-0.76v-3.81c-0.31-0.28-0.61-0.48-0.89-0.59c-0.28-0.11-0.58-0.17-0.88-0.17
		c-0.29,0-0.56,0.07-0.82,0.2s-0.48,0.33-0.67,0.57c-0.19,0.25-0.34,0.54-0.45,0.88C140.77,29.9,140.72,30.28,140.72,30.7z"/>
	<path d="M147.75,30.71c0-0.6,0.09-1.14,0.28-1.61c0.18-0.48,0.43-0.88,0.73-1.21c0.31-0.33,0.65-0.58,1.04-0.76
		c0.39-0.18,0.79-0.26,1.21-0.26c0.46,0,0.87,0.08,1.24,0.24c0.37,0.16,0.67,0.39,0.92,0.69s0.43,0.66,0.56,1.08s0.2,0.89,0.2,1.41
		c0,0.27-0.01,0.5-0.04,0.67h-4.92c0.05,0.79,0.29,1.42,0.73,1.88c0.43,0.46,1,0.69,1.7,0.69c0.35,0,0.67-0.05,0.97-0.16
		c0.29-0.1,0.58-0.24,0.85-0.41l0.43,0.81c-0.32,0.2-0.67,0.38-1.07,0.53c-0.39,0.15-0.83,0.22-1.33,0.22
		c-0.49,0-0.95-0.09-1.37-0.26c-0.42-0.18-0.79-0.43-1.11-0.75c-0.31-0.33-0.56-0.72-0.74-1.19
		C147.84,31.85,147.75,31.31,147.75,30.71z M152.85,30.16c0-0.75-0.16-1.32-0.47-1.72c-0.31-0.4-0.76-0.59-1.33-0.59
		c-0.26,0-0.51,0.05-0.74,0.16c-0.23,0.11-0.45,0.26-0.64,0.45c-0.19,0.2-0.35,0.44-0.47,0.72c-0.12,0.29-0.21,0.61-0.25,0.98
		H152.85z"/>
	<path d="M158.88,24.5h3.02c0.54,0,1.04,0.05,1.48,0.15c0.45,0.1,0.83,0.26,1.15,0.49c0.32,0.22,0.56,0.52,0.74,0.89
		s0.26,0.82,0.26,1.36c0,0.52-0.09,0.97-0.26,1.35s-0.42,0.7-0.74,0.94c-0.32,0.25-0.7,0.44-1.15,0.56
		c-0.45,0.13-0.94,0.19-1.48,0.19h-1.77v3.9h-1.25V24.5z M161.75,29.42c0.86,0,1.5-0.16,1.91-0.49c0.41-0.33,0.62-0.84,0.62-1.54
		c0-0.71-0.21-1.2-0.63-1.48c-0.42-0.27-1.06-0.41-1.91-0.41h-1.62v3.92H161.75z"/>
	<path d="M167.4,27.05h1.02l0.11,1.32h0.04c0.25-0.46,0.55-0.83,0.91-1.1c0.35-0.27,0.74-0.4,1.16-0.4c0.29,0,0.55,0.05,0.78,0.15
		l-0.24,1.08c-0.12-0.04-0.23-0.07-0.33-0.09c-0.1-0.02-0.22-0.03-0.38-0.03c-0.31,0-0.63,0.13-0.97,0.38
		c-0.34,0.25-0.63,0.69-0.88,1.31v4.68h-1.23V27.05z"/>
	<path d="M173.24,25.55c-0.24,0-0.44-0.08-0.61-0.22c-0.17-0.15-0.25-0.34-0.25-0.57c0-0.24,0.08-0.43,0.25-0.58
		c0.17-0.15,0.37-0.22,0.61-0.22c0.24,0,0.44,0.07,0.61,0.22c0.17,0.14,0.25,0.34,0.25,0.58c0,0.23-0.08,0.42-0.25,0.57
		C173.68,25.48,173.48,25.55,173.24,25.55z M172.61,27.05h1.23v7.29h-1.23V27.05z"/>
	<path d="M175.25,27.05h1.28l1.38,4.14c0.11,0.36,0.22,0.72,0.34,1.08c0.11,0.36,0.23,0.72,0.34,1.07h0.06
		c0.11-0.35,0.22-0.71,0.33-1.07c0.11-0.36,0.22-0.72,0.33-1.08l1.38-4.14h1.21l-2.58,7.29h-1.44L175.25,27.05z"/>
	<path d="M182.64,32.46c0-0.8,0.36-1.41,1.07-1.84s1.85-0.72,3.41-0.89c0-0.23-0.02-0.46-0.07-0.67s-0.12-0.42-0.24-0.58
		c-0.12-0.17-0.27-0.31-0.46-0.41c-0.19-0.1-0.43-0.16-0.73-0.16c-0.43,0-0.83,0.08-1.19,0.24s-0.69,0.34-0.98,0.54l-0.5-0.86
		c0.34-0.22,0.75-0.43,1.25-0.64s1.03-0.31,1.62-0.31c0.89,0,1.54,0.27,1.94,0.82c0.4,0.54,0.6,1.27,0.6,2.18v4.47h-1.02l-0.11-0.87
		h-0.03c-0.35,0.29-0.73,0.54-1.13,0.74c-0.41,0.21-0.83,0.31-1.28,0.31c-0.62,0-1.13-0.18-1.54-0.54
		C182.85,33.62,182.64,33.11,182.64,32.46z M183.86,32.36c0,0.42,0.12,0.72,0.37,0.9s0.55,0.27,0.91,0.27c0.35,0,0.68-0.08,1-0.25
		c0.32-0.17,0.65-0.41,1-0.73v-2.02c-0.61,0.08-1.12,0.17-1.55,0.28c-0.42,0.11-0.76,0.24-1.01,0.39c-0.25,0.15-0.44,0.32-0.55,0.52
		C183.91,31.92,183.86,32.13,183.86,32.36z"/>
	<path d="M190.14,30.71c0-0.61,0.09-1.15,0.28-1.63c0.19-0.47,0.45-0.88,0.77-1.21c0.32-0.33,0.69-0.58,1.12-0.75
		s0.87-0.25,1.34-0.25c0.48,0,0.89,0.09,1.24,0.26c0.34,0.17,0.64,0.38,0.89,0.61l-0.62,0.79c-0.22-0.19-0.45-0.35-0.68-0.46
		c-0.23-0.12-0.5-0.18-0.79-0.18c-0.33,0-0.64,0.07-0.92,0.2c-0.28,0.13-0.52,0.33-0.72,0.58c-0.2,0.25-0.36,0.55-0.47,0.89
		c-0.12,0.34-0.17,0.73-0.17,1.15s0.05,0.8,0.17,1.14s0.26,0.63,0.46,0.88c0.19,0.25,0.43,0.43,0.71,0.57
		c0.28,0.14,0.58,0.2,0.92,0.2c0.35,0,0.67-0.07,0.95-0.22c0.28-0.14,0.54-0.32,0.76-0.52l0.56,0.81c-0.33,0.29-0.7,0.52-1.1,0.69
		c-0.41,0.17-0.83,0.25-1.27,0.25c-0.48,0-0.93-0.08-1.35-0.25s-0.78-0.42-1.09-0.74c-0.31-0.33-0.55-0.72-0.72-1.2
		C190.23,31.85,190.14,31.31,190.14,30.71z"/>
	<path d="M197.39,36.42c0.1,0.03,0.2,0.04,0.29,0.04c0.42,0,0.76-0.15,1.03-0.44c0.26-0.3,0.47-0.67,0.62-1.12l0.17-0.54l-2.93-7.3
		h1.28l1.49,4.04c0.11,0.32,0.23,0.66,0.35,1.01c0.12,0.35,0.24,0.7,0.35,1.04h0.06c0.11-0.33,0.21-0.67,0.31-1.04
		c0.1-0.36,0.2-0.7,0.3-1.02l1.3-4.04h1.2l-2.75,7.89c-0.13,0.36-0.28,0.7-0.44,1.01c-0.16,0.31-0.35,0.58-0.57,0.8
		c-0.22,0.23-0.47,0.4-0.75,0.53c-0.28,0.13-0.61,0.19-0.98,0.19c-0.17,0-0.32-0.01-0.46-0.04c-0.14-0.03-0.27-0.06-0.39-0.11
		l0.24-0.98C197.2,36.38,197.29,36.4,197.39,36.42z"/>
</g>
<g>
</g>
<g>
</g>
<g>
</g>
<g>
</g>
<g>
</g>
<g>
</g>
</svg>
